<svg width="42" height="42" viewBox="0 0 42 42" fill="none" xmlns="http://www.w3.org/2000/svg">
<g clip-path="url(#clip0_7802_64335)">
<path d="M21 42C32.598 42 42 32.598 42 21C42 9.40202 32.598 0 21 0C9.40202 0 0 9.40202 0 21C0 32.598 9.40202 42 21 42Z" fill="#010100"/>
<path d="M29.539 21.7651C29.0105 22.4565 28.0228 22.5899 27.3313 22.0614L22.4023 18.2931L24.3186 15.7891L29.2476 19.5574C29.939 20.0859 30.0724 21.0736 29.5439 21.7651H29.539Z" fill="white"/>
<path d="M22.6641 10.7277C24.3553 10.7277 25.7262 9.35675 25.7262 7.6656C25.7262 5.97446 24.3553 4.60352 22.6641 4.60352C20.973 4.60352 19.6021 5.97446 19.6021 7.6656C19.6021 9.35675 20.973 10.7277 22.6641 10.7277Z" fill="white"/>
<path d="M15.6015 36.8692C14.6088 36.5432 14.0656 35.4764 14.3915 34.4837L17.5425 24.8184L21.138 25.9938L17.987 35.6591C17.661 36.6518 16.5943 37.1951 15.6015 36.8692Z" fill="white"/>
<path d="M25.2128 37.4183C24.625 37.4183 24.067 37.196 23.6373 36.796C23.2076 36.391 22.9458 35.8477 22.9113 35.255L22.5013 28.874C22.4915 28.7358 22.4273 28.6024 22.3235 28.5086L18.2539 24.9279C17.8193 24.5427 17.4736 24.0587 17.2513 23.5253C17.0291 22.9869 16.9402 22.3943 16.9896 21.8164C16.9896 21.7917 16.9945 21.7621 16.9995 21.7325C17.113 20.6953 17.5082 18.1864 17.7205 16.8825L17.5427 16.9763C17.2711 17.8505 15.9919 21.9201 15.9821 21.9646C15.8536 22.3795 15.5968 22.7301 15.2511 22.982C14.9103 23.2289 14.5053 23.3623 14.0806 23.3623C13.8781 23.3623 13.6756 23.3327 13.483 23.2684C12.9743 23.1104 12.5594 22.7597 12.3125 22.2906C12.0655 21.8164 12.0162 21.2781 12.1791 20.7694L13.7843 15.6577C13.7843 15.6577 13.7892 15.6429 13.7941 15.628C13.8337 15.4947 13.9275 15.1786 14.1744 14.7934C14.4757 14.3291 14.9103 13.9143 15.4536 13.5685C15.4734 13.5587 15.4931 13.5438 15.5079 13.534L19.9134 11.267C20.2986 11.0695 20.7085 10.9707 21.1283 10.9707C22.0865 10.9707 23.0594 11.4992 23.7262 12.3882C23.9237 12.6549 24.0571 13.0055 24.1262 13.4352C24.1805 13.7858 24.1756 14.1118 24.1509 14.2995C23.9583 15.9194 23.3162 20.4138 23.0051 22.3054C22.9458 22.656 23.0693 23.0067 23.3409 23.2438L26.082 25.6539C27.0006 26.454 27.0451 27.343 27.0846 27.9949C27.0846 28.0542 27.0895 28.1085 27.0945 28.1628C27.2031 29.8421 27.5242 34.9044 27.5291 34.9538C27.5686 35.5711 27.3661 36.1638 26.9562 36.628C26.5512 37.0923 25.9832 37.3689 25.3708 37.4084C25.3214 37.4084 25.272 37.4084 25.2226 37.4084L25.2128 37.4183Z" fill="white"/>
<path d="M21.1282 11.3904C21.9975 11.3904 22.8371 11.8991 23.3902 12.6399C23.7458 13.114 23.7705 13.924 23.731 14.2549C23.5334 15.8946 22.8963 20.3939 22.5852 22.241C22.5012 22.73 22.679 23.2288 23.0544 23.5597L25.7954 25.9748C26.6548 26.7255 26.6202 27.5306 26.6647 28.1973C26.7733 29.8963 27.0993 34.9882 27.0993 34.9882C27.1635 36.0303 26.3733 36.9292 25.3312 36.9983C25.2917 36.9983 25.2472 36.9983 25.2077 36.9983C24.2199 36.9983 23.3853 36.2279 23.3211 35.2302L22.9112 28.8492C22.8963 28.5973 22.7778 28.3603 22.5901 28.1973L18.5205 24.6166C17.7352 23.9252 17.3056 22.9029 17.3945 21.8558C17.3945 21.8311 17.3945 21.8064 17.3994 21.7817C17.5426 20.4433 18.1699 16.6108 18.2439 16.1761C18.2439 16.1613 18.2341 16.1514 18.2242 16.1514C18.2242 16.1514 18.2192 16.1514 18.2143 16.1514L17.2858 16.6256C17.2167 16.6601 17.1673 16.7243 17.1426 16.7984C16.9055 17.559 15.5671 21.8361 15.5671 21.8361C15.3547 22.5077 14.7324 22.9424 14.0657 22.9424C13.9076 22.9424 13.7496 22.9177 13.5915 22.8683C12.7618 22.6065 12.2976 21.7225 12.5593 20.8927L14.1644 15.781C14.2188 15.6032 14.4262 14.7044 15.6609 13.924C15.6708 13.9191 15.6757 13.9141 15.6856 13.9092L20.0911 11.6423C20.4269 11.4694 20.7726 11.3904 21.1183 11.3904M21.1183 10.5557C20.6294 10.5557 20.1553 10.6693 19.7108 10.9014L15.3053 13.1684C15.2757 13.1832 15.2461 13.2029 15.2164 13.2178C14.6188 13.5981 14.1447 14.0524 13.8088 14.5661C13.5273 15.0007 13.4187 15.3711 13.3742 15.5094C13.3742 15.5193 13.3742 15.5242 13.3693 15.5291L11.7642 20.6409C11.6654 20.952 11.6308 21.273 11.6654 21.5941C11.695 21.9052 11.7839 22.2015 11.9271 22.4781C12.0704 22.7547 12.2679 22.9967 12.505 23.1992C12.7519 23.4066 13.0334 23.5647 13.3446 23.6634C13.5817 23.7375 13.8237 23.7721 14.0657 23.7721C14.3077 23.7721 14.5694 23.7326 14.8114 23.6536C15.0485 23.5745 15.2757 23.4609 15.4782 23.3128C15.6856 23.1646 15.8634 22.9819 16.0116 22.7794C16.1647 22.567 16.2832 22.3299 16.3622 22.0781C16.3622 22.0682 16.466 21.7422 16.6191 21.2632C16.5993 21.4212 16.5845 21.5595 16.5697 21.678C16.5697 21.7076 16.5647 21.7373 16.5598 21.7669C16.5302 22.0929 16.545 22.4188 16.5944 22.7448C16.6437 23.0609 16.7326 23.372 16.8512 23.6684C16.9747 23.9647 17.1278 24.2462 17.3154 24.508C17.5031 24.7697 17.7204 25.0117 17.9624 25.2291L22.032 28.8097C22.032 28.8097 22.0666 28.8591 22.0715 28.8887L22.4815 35.2697C22.5259 35.9661 22.8321 36.6131 23.3408 37.0872C23.8495 37.5614 24.5064 37.8231 25.2028 37.8231C25.262 37.8231 25.3213 37.8231 25.3806 37.8182C25.7461 37.7935 26.1016 37.6997 26.4276 37.5367C26.7437 37.3786 27.0203 37.1663 27.2573 36.8996C27.4895 36.6329 27.6673 36.3316 27.7858 35.9957C27.9043 35.65 27.9537 35.2895 27.934 34.924C27.934 34.8746 27.608 29.8123 27.4993 28.1331C27.4993 28.0788 27.4944 28.0244 27.4895 27.9701C27.4549 27.2886 27.3956 26.2563 26.3486 25.3377L23.6075 22.9226C23.4495 22.7843 23.3754 22.5769 23.41 22.3695C23.7261 20.4779 24.3681 15.9736 24.5607 14.3488C24.5953 14.0672 24.5854 13.7018 24.536 13.3709C24.462 12.872 24.299 12.4522 24.057 12.1362C23.7063 11.6719 23.2717 11.2817 22.7877 11.0101C22.5309 10.8669 22.2642 10.7533 21.9975 10.6743C21.711 10.5903 21.4147 10.5508 21.1282 10.5508L21.1183 10.5557Z" fill="#010100"/>
</g>
<defs>
<clipPath id="clip0_7802_64335">
<rect width="42" height="42" fill="white"/>
</clipPath>
</defs>
</svg>
